<?xml version="1.0" encoding="UTF-8" standalone="no"?>
<!DOCTYPE svg PUBLIC "-//W3C//DTD SVG 1.1//EN" "http://www.w3.org/Graphics/SVG/1.1/DTD/svg11.dtd">
<!-- Created with Vectornator (http://vectornator.io/) -->
<svg height="100%" stroke-miterlimit="10" style="fill-rule:nonzero;clip-rule:evenodd;stroke-linecap:round;stroke-linejoin:round;" version="1.1" viewBox="0 0 192.987 39.5409" width="100%" xml:space="preserve" xmlns="http://www.w3.org/2000/svg" xmlns:vectornator="http://vectornator.io" xmlns:xlink="http://www.w3.org/1999/xlink">
<defs/>
<g id="Layer-1" vectornator:layerName="Layer 1">
<g opacity="1" vectornator:layerName="Group 1">
<path d="M19.8705 3.46251C23.7339 3.46251 26.5426 4.19621 28.2967 5.66365C30.0508 7.13107 30.9277 9.26056 30.9277 12.0521C30.9411 13.1429 30.7336 14.2251 30.3172 15.2334C29.9049 16.1699 29.3218 17.0213 28.5976 17.7441C29.9789 18.6531 31.0919 19.9147 31.822 21.3983C32.5526 22.8914 32.9265 24.5339 32.914 26.1962C32.9171 27.5095 32.7407 28.817 32.3894 30.0825C32.0639 31.3161 31.4776 32.4655 30.6698 33.453C29.808 34.4741 28.7182 35.2781 27.4884 35.8003C25.9293 36.4249 24.2574 36.7177 22.5788 36.6601L7.24827 36.6601L7.24827 3.46251L19.8705 3.46251ZM12.1836 7.96796L12.1836 16.0847L21.057 16.0847C22.4338 16.1954 23.8073 15.8345 24.9519 15.0614C25.8187 14.2719 26.2724 13.1265 26.1816 11.9575C26.2818 10.8047 25.8248 9.67349 24.9521 8.91377C23.7868 8.19333 22.4228 7.86211 21.057 7.96797L12.1836 7.96796ZM23.6709 32.1719C24.3781 32.1956 25.0771 32.0134 25.6828 31.6474C26.2356 31.3081 26.6939 30.8349 27.0156 30.2717C27.3598 29.6747 27.6092 29.0279 27.755 28.3543C27.909 27.6452 27.9869 26.9217 27.9872 26.1961C27.9896 25.4846 27.9117 24.7751 27.7551 24.081C27.6089 23.4342 27.3404 22.8213 26.964 22.2754C26.5982 21.7495 26.1115 21.319 25.5451 21.02C24.8767 20.6843 24.1346 20.5217 23.3871 20.5471L12.2094 20.5471L12.2094 32.1719L23.6709 32.1719Z" fill="#022739" fill-rule="nonzero" opacity="1" stroke="none" vectornator:layerName="path"/>
<path d="M38.5887 6.87596C38.5737 6.17968 38.7651 5.49455 39.1391 4.90699C39.6816 4.26347 40.5139 3.9396 41.3487 4.04714C42.1869 3.95233 43.0186 4.27343 43.5757 4.90698C44.3333 6.11961 44.3333 7.65811 43.5757 8.87074C43.0084 9.48526 42.1782 9.78654 41.3487 9.67897C40.5234 9.79589 39.6941 9.49263 39.139 8.87077C38.7596 8.27607 38.5678 7.58103 38.5887 6.87596M39.0186 12.9549L43.6701 12.9549L43.6701 36.6773L39.0186 36.6773L39.0186 12.9549Z" fill="#022739" fill-rule="nonzero" opacity="1" stroke="none" vectornator:layerName="path 1"/>
<path d="M49.5342 3.12721L54.1857 3.12721L54.1857 16.1792C55.0634 15.1181 56.1126 14.2114 57.2896 13.4966C58.7412 12.6727 60.3939 12.2707 62.0615 12.3359C63.8275 12.2986 65.5828 12.6203 67.2206 13.2816C68.6337 13.8754 69.8925 14.7841 70.9005 15.9385C71.9044 17.1263 72.6537 18.5076 73.1018 19.9968C73.6107 21.6508 73.8601 23.3737 73.8411 25.1042C73.8629 26.8094 73.6134 28.5073 73.1018 30.1342C72.6585 31.5687 71.9072 32.8892 70.9005 34.0034C69.8749 35.0921 68.6171 35.9355 67.2205 36.471C65.5708 37.0816 63.8202 37.3733 62.0615 37.3308C60.4114 37.3874 58.7752 37.0109 57.3154 36.2388C56.1384 35.5804 55.0805 34.7288 54.1857 33.7196L54.1857 36.6602L49.5341 36.6602L49.5342 3.12721ZM54.1857 24.958C54.1775 26.0561 54.3223 27.1499 54.6156 28.2081C54.8769 29.1595 55.3467 30.0407 55.9914 30.7876C56.6571 31.5467 57.4942 32.1362 58.4332 32.5072C59.5905 32.9492 60.8233 33.1595 62.0615 33.1263C63.1067 33.1464 64.1432 32.9349 65.0969 32.5072C65.9625 32.1105 66.7268 31.5225 67.3322 30.7876C67.9497 30.0264 68.4087 29.1494 68.6824 28.2081C68.9934 27.1531 69.1469 26.0579 69.1381 24.958C69.1446 23.8442 68.9911 22.7352 68.6823 21.6649C68.4118 20.6911 67.9531 19.7798 67.3323 18.9823C66.7301 18.2222 65.9667 17.6054 65.0969 17.1766C64.152 16.7184 63.1115 16.4914 62.0615 16.5146C60.8191 16.4774 59.5827 16.703 58.4332 17.1767C57.489 17.5789 56.6527 18.1974 55.9914 18.9823C55.3425 19.7654 54.8731 20.6811 54.6156 21.6649C54.324 22.7381 54.1792 23.8459 54.1856 24.958" fill="#022739" fill-rule="nonzero" opacity="1" stroke="none" vectornator:layerName="path 2"/>
<path d="M77.5386 30.1341C77.5158 28.9672 77.8132 27.8164 78.3983 26.8066C78.9845 25.8354 79.7488 24.9835 80.6511 24.2959C81.6334 23.538 82.7118 22.9134 83.8583 22.4387C85.0643 21.9342 86.2988 21.5007 87.5554 21.1404C88.781 20.7905 90.0235 20.5035 91.2785 20.2806C92.4992 20.057 93.6 19.8678 94.5802 19.7045L94.5802 19.1886C94.5802 18.2342 94.3565 17.6667 93.9181 17.4689C93.389 17.2659 92.8251 17.1695 92.2586 17.1852L78.6219 17.1852L78.6219 12.9635L93.6172 12.9635C94.7212 12.9111 95.8235 13.0958 96.8501 13.5052C97.5537 13.819 98.1362 14.3532 98.5096 15.0271C98.876 15.7487 99.084 16.5401 99.1201 17.3486C99.1888 18.2485 99.2232 19.2373 99.2232 20.3149L99.2232 31.1401C99.1898 31.4995 99.2616 31.8609 99.4295 32.1805C99.6821 32.4072 100.022 32.5111 100.358 32.4642L102.207 32.4642L102.207 36.6859L98.1743 36.6859C97.5079 36.7208 96.8428 36.6001 96.2312 36.3334C95.8008 36.143 95.425 35.8473 95.1391 35.4736C94.8885 35.1314 94.7261 34.7327 94.6664 34.3128C94.6046 33.952 94.5729 33.5868 94.5716 33.2208L94.5716 31.3722C94.4502 32.1226 94.1749 32.8397 93.7634 33.4788C93.2901 34.2222 92.6874 34.8745 91.9835 35.4048C91.1979 35.997 90.3286 36.4694 89.4042 36.8063C88.3701 37.1766 87.2782 37.3601 86.1798 37.348C85.1073 37.3506 84.0406 37.1912 83.0157 36.8751C82.0228 36.5745 81.0912 36.1 80.2641 35.4736C79.4668 34.8661 78.8049 34.0988 78.321 33.2209C77.8209 32.2886 77.5693 31.2434 77.5902 30.1857M82.5255 29.8073C82.5129 30.2518 82.6559 30.6866 82.9297 31.0369C83.1959 31.389 83.5328 31.6818 83.9184 31.8967C84.3365 32.1238 84.7855 32.2889 85.2511 32.3868C85.7104 32.4964 86.1804 32.5541 86.6527 32.5588C87.6314 32.5527 88.599 32.351 89.4986 31.9655C90.431 31.5927 91.3011 31.0795 92.0781 30.4436C92.8006 29.8539 93.4195 29.1478 93.9095 28.3543C94.3531 27.6848 94.6004 26.9044 94.6231 26.1015L94.6231 23.5909C94.1159 23.6769 93.4624 23.8144 92.6714 23.9864C91.8804 24.1584 91.0464 24.3733 90.1607 24.6313C89.2751 24.8892 88.381 25.1729 87.4781 25.4911C86.6314 25.7979 85.8141 26.1807 85.0361 26.6346C84.3681 27.0054 83.7668 27.4849 83.2563 28.0533C82.8221 28.5216 82.577 29.1344 82.5686 29.773" fill="#022739" fill-rule="nonzero" opacity="1" stroke="none" vectornator:layerName="path 3"/>
<path d="M105.156 30.1341C105.133 28.9673 105.43 27.8165 106.015 26.8067C106.604 25.8373 107.368 24.986 108.268 24.296C109.251 23.538 110.329 22.9135 111.475 22.4388C112.684 21.9343 113.922 21.5008 115.181 21.1404C116.406 20.7896 117.649 20.5027 118.904 20.2806C120.117 20.0571 121.217 19.8679 122.206 19.7045L122.206 19.1886C122.206 18.2342 121.982 17.6668 121.535 17.469C121.007 17.2642 120.442 17.1677 119.876 17.1853L106.256 17.1853L106.256 12.9635L121.208 12.9635C122.31 12.9124 123.409 13.0971 124.433 13.5053C125.138 13.8164 125.721 14.3512 126.092 15.0271C126.465 15.7466 126.677 16.5389 126.711 17.3486C126.771 18.2084 126.806 19.2402 126.806 20.315L126.806 31.1401C126.77 31.5007 126.845 31.8637 127.021 32.1805C127.159 32.3697 127.468 32.4643 127.941 32.4643L129.798 32.4643L129.798 36.686L125.766 36.686C125.097 36.7194 124.429 36.5987 123.814 36.3334C123.385 36.1405 123.01 35.8453 122.722 35.4736C122.476 35.1287 122.314 34.7313 122.249 34.3129C122.192 33.9516 122.16 33.5867 122.154 33.2209L122.154 31.3723C122.041 32.1247 121.765 32.8434 121.346 33.4788C120.875 34.2242 120.272 34.877 119.566 35.4048C118.782 35.9988 117.912 36.4713 116.987 36.8063C115.953 37.1767 114.861 37.3602 113.762 37.3481C112.693 37.35 111.629 37.1906 110.607 36.8751C109.613 36.5764 108.681 36.1017 107.856 35.4736C107.054 34.8708 106.391 34.1025 105.912 33.2209C105.406 32.2909 105.151 31.2446 105.173 30.1858M110.108 29.8074C110.1 30.2512 110.242 30.6847 110.512 31.037C110.782 31.3893 111.122 31.6821 111.51 31.8968C111.925 32.1239 112.371 32.289 112.834 32.3869C113.293 32.496 113.763 32.5537 114.235 32.5588C115.214 32.5534 116.182 32.3517 117.082 31.9656C118.014 31.592 118.883 31.0789 119.661 30.4437C120.379 29.8514 120.994 29.1456 121.484 28.3543C121.927 27.6848 122.175 26.9044 122.197 26.1016L122.197 23.5909C121.69 23.6769 121.045 23.8145 120.254 23.9864C119.463 24.1584 118.62 24.3734 117.735 24.6313C116.849 24.8893 115.955 25.173 115.052 25.4911C114.182 25.7734 113.339 26.1331 112.533 26.5659C111.865 26.9367 111.264 27.4161 110.753 27.9846C110.319 28.4529 110.074 29.0656 110.066 29.7042" fill="#022739" fill-rule="nonzero" opacity="1" stroke="none" vectornator:layerName="path 4"/>
<path d="M133.014 3.12721L137.666 3.12721L137.666 16.1792C138.543 15.1181 139.592 14.2114 140.77 13.4966C142.221 12.6728 143.874 12.2707 145.542 12.3359C147.308 12.2986 149.063 12.6203 150.701 13.2817C152.114 13.8754 153.372 14.7841 154.381 15.9385C155.384 17.1263 156.134 18.5076 156.582 19.9969C157.091 21.6508 157.34 23.3737 157.321 25.1042C157.343 26.8094 157.093 28.5073 156.582 30.1342C156.138 31.5687 155.387 32.8892 154.381 34.0033C153.355 35.0921 152.097 35.9355 150.701 36.471C149.051 37.0815 147.3 37.3733 145.542 37.3308C143.891 37.3874 142.255 37.0109 140.795 36.2388C139.618 35.5804 138.561 34.7288 137.666 33.7196L137.666 36.6602L133.014 36.6602L133.014 3.12721ZM137.666 24.958C137.658 26.0561 137.802 27.1499 138.096 28.2081C138.357 29.1595 138.827 30.0407 139.471 30.7876C140.137 31.5466 140.974 32.1361 141.913 32.5072C143.07 32.9492 144.303 33.1595 145.542 33.1263C146.587 33.1464 147.623 32.9349 148.577 32.5073C149.442 32.1106 150.207 31.5226 150.812 30.7876C151.43 30.0264 151.888 29.1493 152.162 28.2081C152.473 27.1531 152.627 26.0579 152.618 24.958C152.625 23.8441 152.471 22.7351 152.162 21.6649C151.892 20.6911 151.433 19.7798 150.812 18.9823C150.21 18.2222 149.447 17.6054 148.577 17.1766C147.632 16.7183 146.591 16.4914 145.542 16.5146C144.299 16.4774 143.063 16.703 141.913 17.1766C140.969 17.5789 140.133 18.1974 139.471 18.9822C138.823 19.7655 138.353 20.6811 138.096 21.6649C137.804 22.7381 137.659 23.8459 137.666 24.958" fill="#022739" fill-rule="nonzero" opacity="1" stroke="none" vectornator:layerName="path 5"/>
<path d="M173.262 12.2844C175.245 12.2327 177.218 12.5655 179.074 13.2645C180.56 13.832 181.887 14.7492 182.944 15.9386C183.94 17.1146 184.667 18.4937 185.076 19.9797C185.53 21.6321 185.752 23.3392 185.738 25.0526C185.756 26.7465 185.533 28.4343 185.076 30.0654C184.668 31.4976 183.939 32.818 182.944 33.926C181.879 35.0631 180.55 35.9196 179.074 36.4195C177.202 37.0416 175.235 37.3326 173.262 37.2793C171.295 37.3341 169.333 37.0431 167.467 36.4194C164.53 35.4323 162.275 33.0515 161.448 30.0654C160.991 28.4343 160.768 26.7465 160.786 25.0527C160.772 23.3392 160.994 21.6321 161.448 19.9797C161.858 18.4892 162.596 17.1087 163.606 15.9386C164.669 14.7567 165.994 13.8408 167.475 13.2646C169.325 12.564 171.294 12.231 173.271 12.2844M165.386 25.0097C165.378 26.0767 165.523 27.1393 165.816 28.1652C166.084 29.1008 166.554 29.9665 167.192 30.7017C167.859 31.459 168.696 32.0482 169.633 32.4213C171.987 33.235 174.546 33.235 176.899 32.4213C177.833 32.0545 178.663 31.464 179.315 30.7017C179.942 29.9615 180.405 29.097 180.674 28.1653C180.964 27.1389 181.106 26.0762 181.095 25.0097C181.103 23.8952 180.962 22.7846 180.674 21.708C180.409 20.7223 179.947 19.8008 179.315 18.9996C178.671 18.2037 177.841 17.5779 176.899 17.1767C174.558 16.2958 171.976 16.2958 169.634 17.1767C168.688 17.5842 167.851 18.2087 167.192 18.9995C166.548 19.7956 166.079 20.7185 165.816 21.708C165.525 22.7842 165.38 23.8948 165.386 25.0097" fill="#022739" fill-rule="nonzero" opacity="1" stroke="none" vectornator:layerName="path 6"/>
</g>
</g>
</svg>
